<?xml version="1.0" encoding="UTF-8" standalone="no"?>
<!-- Created with Inkscape (http://www.inkscape.org/) -->

<svg
   width="1000.0001"
   height="1000.0001"
   viewBox="0 0 264.58335 264.58335"
   version="1.1"
   id="svg1"
   xml:space="preserve"
   xmlns="http://www.w3.org/2000/svg"
   xmlns:svg="http://www.w3.org/2000/svg"><defs
     id="defs1" /><g
     id="layer1"><path
       id="rect5"
       style="fill:#000000;fill-opacity:1;stroke:none;stroke-width:0.719288;stroke-linecap:round;stroke-linejoin:round;stroke-dasharray:none"
       d="m 112.15561,74.967231 c -4.24291,-0.0238 -6.56294,1.367847 -6.66743,5.48515 v 50.153479 h 0.01 c -0.01,0.12797 -0.0192,0.25613 -0.0274,0.38426 0,14.10297 10.74161,25.69554 24.48944,27.04674 v 55.70134 c -10.42923,0.17026 -18.24842,1.31204 -18.25193,2.66518 -0.001,1.4844 9.34675,2.68783 20.87914,2.68783 11.53239,0 20.88078,-1.20343 20.87913,-2.68783 -2.7e-4,-1.35344 -7.82003,-2.49567 -18.25152,-2.66601 v -55.69121 c 13.80783,-1.29281 24.6155,-12.91022 24.6155,-27.05604 -0.003,-0.76108 -0.0365,-1.52191 -0.10262,-2.28012 V 80.98534 c 0.10791,-4.317614 -1.89339,-6.009581 -5.72275,-6.018109 z m 20.43183,5.515859 9.17425,14.450085 9.17464,14.450095 h -6.68601 l 0.35153,0.44204 8.84654,11.12992 c -4.28215,1.45989 -8.55783,1.97722 -9.31081,2.06152 -0.25065,-0.13534 -0.18128,-0.10025 -0.44488,-0.24244 -21.26036,-11.47133 -29.05858,0.90269 -29.05858,0.90269 -1.03768,0.537 -2.30086,0.28091 -3.65433,-0.45337 l 10.64988,-13.39832 0.35153,-0.44204 h -7.74224 l 9.17424,-14.450095 z" /><g
       id="g7"><text
         xml:space="preserve"
         style="font-style:normal;font-variant:normal;font-weight:300;font-stretch:normal;font-size:34.8356px;line-height:normal;font-family:'Fira Sans';-inkscape-font-specification:'Fira Sans, Light';font-variant-ligatures:normal;font-variant-caps:normal;font-variant-numeric:normal;font-variant-east-asian:normal;text-align:end;text-decoration-color:#000000;text-anchor:end;fill:#000000;fill-opacity:1;stroke:none;stroke-width:1.09211;stroke-linecap:round;stroke-linejoin:round;stroke-dasharray:none;stroke-opacity:1"
         x="240.7662"
         y="194.91116"
         id="text6"><tspan
           id="tspan6"
           style="font-style:normal;font-variant:normal;font-weight:300;font-stretch:normal;font-size:34.8356px;font-family:'Fira Sans';-inkscape-font-specification:'Fira Sans, Light';font-variant-ligatures:normal;font-variant-caps:normal;font-variant-numeric:normal;font-variant-east-asian:normal;stroke-width:1.09211"
           x="240.76622"
           y="194.91116">PINHO  VINHO</tspan></text><rect
         style="fill:#000000;fill-opacity:1;stroke:none;stroke-width:1.5749;stroke-linecap:round;stroke-linejoin:round;stroke-dasharray:none;stroke-opacity:1"
         id="rect6"
         width="92.220909"
         height="2.6462204"
         x="24.890327"
         y="198.27698" /><path
         id="rect6-6"
         style="stroke-width:1.52823;stroke-linecap:round;stroke-linejoin:round"
         d="m 150.34026,198.27698 h 85.80843 v 2.64622 h -84.93736 z" /></g></g></svg>
